<svg width="273" height="80" viewBox="0 0 273 80" fill="none" xmlns="http://www.w3.org/2000/svg">
<g filter="url(#filter0_d_405_6941)">
<path d="M4 60.7614V11.4609H32.2216V19.2452H13.6074V31.7866H29.8198V41.0845H13.6074V60.7614H4Z" fill="white"/>
<path d="M42.8296 60.7614V11.4609H71.0512V19.2452H52.4369V31.7866H68.6494V41.0845H52.4369V52.3285H71.2514V60.7614H42.8296Z" fill="white"/>
<path d="M110.482 60.7614H82.0601V11.4609H91.6674V52.3285H110.482V60.7614Z" fill="white"/>
<path d="M145.909 60.5446H117.487V11.2441H127.094V52.1117H145.909V60.5446Z" fill="white"/>
<path d="M210.158 11.2441L219.565 44.3274L229.572 11.2441H235.577L246.185 44.3274L255.793 11.2441H265L251.389 60.5446H241.982L232.575 28.7588L222.967 60.5446H213.56L200.15 11.2441H210.158Z" fill="white"/>
<path d="M194.746 35.0288C194.746 49.1205 184.71 60.544 172.329 60.544C159.949 60.544 149.912 49.1205 149.912 35.0288C149.912 20.9372 159.949 9.51367 172.329 9.51367C184.71 9.51367 194.746 20.9372 194.746 35.0288ZM158.274 35.0288C158.274 43.8639 164.567 51.0261 172.329 51.0261C180.092 51.0261 186.384 43.8639 186.384 35.0288C186.384 26.1938 180.092 19.0316 172.329 19.0316C164.567 19.0316 158.274 26.1938 158.274 35.0288Z" fill="white"/>
<path d="M158.719 40.5076L184.223 0L172.611 31.0558H187.541L159.548 71.7885L171.367 40.5076H158.719Z" fill="#ED830D"/>
</g>
<defs>
<filter id="filter0_d_405_6941" x="0" y="0" width="269" height="79.7881" filterUnits="userSpaceOnUse" color-interpolation-filters="sRGB">
<feFlood flood-opacity="0" result="BackgroundImageFix"/>
<feColorMatrix in="SourceAlpha" type="matrix" values="0 0 0 0 0 0 0 0 0 0 0 0 0 0 0 0 0 0 127 0" result="hardAlpha"/>
<feOffset dy="4"/>
<feGaussianBlur stdDeviation="2"/>
<feComposite in2="hardAlpha" operator="out"/>
<feColorMatrix type="matrix" values="0 0 0 0 0 0 0 0 0 0 0 0 0 0 0 0 0 0 0.25 0"/>
<feBlend mode="normal" in2="BackgroundImageFix" result="effect1_dropShadow_405_6941"/>
<feBlend mode="normal" in="SourceGraphic" in2="effect1_dropShadow_405_6941" result="shape"/>
</filter>
</defs>
</svg>
