<svg width="22" height="20" viewBox="0 0 22 20" fill="none" xmlns="http://www.w3.org/2000/svg">
<path d="M21.9562 13.9049L21.4719 12.1337C21.4209 11.9312 21.217 11.8301 21.0133 11.8805L19.1526 12.3614L17.1135 4.84608C17.0625 4.64363 16.8586 4.54249 16.6549 4.59297L12.6533 5.65574L11.5574 1.63245C11.5064 1.42999 11.3025 1.32885 11.0988 1.37934L5.95035 2.72045L5.28773 0.26596C5.2367 0.0635057 5.03278 -0.0376335 4.85447 0.012848L0.751037 1.02492C0.215715 1.17671 -0.115481 1.70817 0.0373961 2.23946C0.190292 2.77094 0.751036 3.0745 1.26073 2.94798L3.40161 2.4165L7.81084 18.5351C7.86187 18.7376 8.06579 18.8387 8.26952 18.7883L9.391 18.4847C9.92632 19.6233 11.2515 20.2559 12.5259 19.9016C13.8002 19.5726 14.6159 18.3833 14.5139 17.1181L21.0896 15.3975C21.7523 15.2715 22.1346 14.563 21.9563 13.905L21.9562 13.9049ZM18.4644 12.5638L9.31447 14.9676L7.35191 7.80659L16.5018 5.40275L18.4644 12.5638ZM10.9456 2.16384L11.9396 5.83287L7.14806 7.09807L6.15424 3.42904L10.9456 2.16384ZM8.42251 18.0041L4.0131 1.9108C3.96207 1.759 3.80918 1.63245 3.65629 1.63245H3.57984L1.08214 2.23979C0.725331 2.34093 0.59784 1.80964 0.929246 1.70832L4.67586 0.772112L8.70283 15.499C8.75385 15.7015 8.95777 15.8026 9.16151 15.7521L9.8497 15.5749C9.26355 16.1823 9.03402 17.0426 9.16151 17.827L8.42251 18.0041ZM12.322 19.2439C11.3027 19.5223 10.2576 18.9656 9.95183 17.9787C9.62044 16.916 10.2322 15.8278 11.3027 15.5495C12.4241 15.2459 13.52 15.9796 13.7239 16.9919C13.9532 18.0294 13.2904 18.9656 12.322 19.2439V19.2439ZM20.8857 14.7398L14.3355 16.4604C14.0552 15.7013 13.3926 15.0941 12.6025 14.8662C15.1002 14.2084 18.2861 13.3733 20.8603 12.6901L21.2426 14.1071C21.319 14.3856 21.1661 14.6639 20.8858 14.7398H20.8857Z" fill="white"/>
</svg>
