<svg width="22" height="22" viewBox="3 0 22 22"
    fill="none"
    xmlns="http://www.w3.org/2000/svg"
>
    <path
        d="M15.6108 4.16232L15.6108 2.12259C15.6108 1.27688 16.5955 0.809597 17.2476 1.34582L19.7538 3.40642C20.4813 4.00457 20.0486 5.18749 19.1052 5.17962L16.599 5.15874C16.0514 5.15418 15.6108 4.70996 15.6108 4.16232Z"
        fill="white"
    />
    <path
        d="M4 2.20605C4 1.10148 4.89543 0.206055 6 0.206055H12.7234C13.828 0.206055 14.7234 1.10149 14.7234 2.20605V4.39258C14.7234 5.49715 15.6188 6.39258 16.7234 6.39258H19.6936C20.7981 6.39258 21.6936 7.28802 21.6936 8.39258V17.778C21.6936 18.8826 20.7981 19.778 19.6936 19.778H6C4.89543 19.778 4 18.8826 4 17.778V2.20605Z"
        fill="white"
    />
    <path
        d="M4 1.20605C4 0.653769 4.44772 0.206055 5 0.206055H13.7234C14.2757 0.206055 14.7234 0.65377 14.7234 1.20605V5.39258C14.7234 5.94487 15.1711 6.39258 15.7234 6.39258H20.6936C21.2459 6.39258 21.6936 6.8403 21.6936 7.39258V18.778C21.6936 19.3303 21.2459 19.778 20.6936 19.778H5C4.44771 19.778 4 19.3303 4 18.778V1.20605Z"
        fill="white"
    />
    <rect
        x="8.42383"
        y="8.8584"
        width="8.60104"
        height="1.23612"
        rx="0.618061"
        fill="#203853"
    />
    <rect
        x="8.42383"
        y="10.9189"
        width="8.60104"
        height="1.44214"
        rx="0.721071"
        fill="#203853"
    />
    <rect
        x="8.42383"
        y="13.1855"
        width="8.60104"
        height="1.44214"
        rx="0.721071"
        fill="#203853"
    />
</svg>
