<svg width="22" height="22" viewBox="0 0 22 22" fill="none" xmlns="http://www.w3.org/2000/svg">
<path d="M15.889 20.7778V11.8843C15.889 11.5508 16.1724 11.2806 16.5001 11.2806C16.8375 11.2806 17.1112 11.5441 17.1112 11.8843V20.7778H18.3425C19.6779 20.7778 20.7779 19.681 20.7779 18.3424V3.65747C20.7779 2.32208 19.6811 1.22209 18.3425 1.22209H3.65763C2.32224 1.22209 1.22225 2.31886 1.22225 3.65747V18.3424C1.22225 19.6778 2.31902 20.7778 3.65763 20.7778H4.88899V14.9494C4.88899 14.6053 5.17243 14.3263 5.50008 14.3263C5.83753 14.3263 6.11116 14.5973 6.11116 14.9494V20.7778H8.55562V8.84166C8.55562 8.50666 8.83906 8.23517 9.16671 8.23517C9.50432 8.23517 9.77795 8.49666 9.77795 8.84166V20.7778H12.2222V4.27473C12.2222 3.93896 12.5058 3.66671 12.8335 3.66671C13.1709 3.66671 13.4446 3.93925 13.4446 4.27473V20.7778H15.889ZM0 3.65755C0 1.63757 1.65352 0 3.65755 0H18.3424C20.3624 0 22 1.65352 22 3.65755V18.3424C22 20.3624 20.3465 22 18.3424 22H3.65755C1.63757 22 0 20.3465 0 18.3424V3.65755Z" fill="white"/>
</svg>
