<svg width="20" height="19" viewBox="0 0 20 19" fill="none" xmlns="http://www.w3.org/2000/svg">
<path d="M5.25934 18.6911C5.30877 18.7406 5.35803 18.7652 5.43226 18.7652H19.753C19.9011 18.7652 20 18.6665 20 18.5182L19.9998 4.19745C19.9998 4.09876 19.9504 4.02453 19.8763 3.9999L13.2098 0.0492586C13.1851 1.20889e-07 13.1357 0 13.0863 0H0.24698C0.0988609 0 0 0.098689 0 0.24698V13.0863C0 13.1603 0.0246289 13.2098 0.0740598 13.2592L5.25934 18.6911ZM19.506 18.2712H5.67908V4.4443H10.6173V8.14794C10.6173 8.29606 10.716 8.39492 10.8643 8.39492H14.0741C14.2222 8.39492 14.3211 8.29623 14.3211 8.14794L14.3209 4.4443H19.506L19.506 18.2712ZM11.1111 7.90103V4.44438H13.8272V7.90103H11.1111ZM13.0123 0.49374L18.8394 3.95039H14.395L9.20994 0.49374H13.0123ZM8.32106 0.49374L13.5062 3.95039L10.9382 3.95056L5.75311 0.493913L8.32106 0.49374ZM4.86424 0.49374L10.0493 3.95039L5.5062 3.95056L0.987754 0.493736L4.86424 0.49374ZM0.494067 0.740721L5.18535 4.32087V17.9009L0.494067 12.9874V0.740721Z" fill="white"/>
</svg>
