<svg width="22" height="20" viewBox="0 0 22 20" fill="none" xmlns="http://www.w3.org/2000/svg">
<mask id="mask0_402_6930" style="mask-type:luminance" maskUnits="userSpaceOnUse" x="0" y="0" width="22" height="20">
<path d="M7.8562 19.9961C6.03683 19.4825 4.3891 18.5321 3.0734 17.2376C3.49672 16.7628 3.76061 16.1794 3.83129 15.562C3.90198 14.9446 3.77625 14.3213 3.47019 13.7719C3.16414 13.2225 2.69167 12.7719 2.11326 12.4778C1.53485 12.1837 0.876791 12.0595 0.223302 12.121C0.0744259 11.4315 -0.000387446 10.7294 1.50881e-06 10.0256C1.50881e-06 8.93866 0.176001 7.89017 0.503801 6.90514H0.550001C1.11087 6.90531 1.66252 6.7703 2.15288 6.51286C2.64324 6.25543 3.05613 5.88406 3.35254 5.43382C3.64896 4.98358 3.81913 4.46933 3.84699 3.93963C3.87484 3.40992 3.75947 2.88225 3.51175 2.40642C4.80128 1.27099 6.36078 0.44562 8.0586 0C8.33491 0.51301 8.75591 0.94374 9.27504 1.24453C9.79416 1.54532 10.3912 1.70445 11 1.70431C11.6088 1.70445 12.2058 1.54532 12.725 1.24453C13.2441 0.94374 13.6651 0.51301 13.9414 0C15.6392 0.44562 17.1987 1.27099 18.4882 2.40642C18.2387 2.88558 18.1234 3.41728 18.1534 3.95063C18.1834 4.48398 18.3577 5.00112 18.6595 5.45256C18.9614 5.904 19.3807 6.27462 19.8774 6.52895C20.374 6.78328 20.9314 6.91281 21.4962 6.90514C21.8311 7.91499 22.001 8.96728 22 10.0256C22 10.7433 21.923 11.4444 21.7767 12.1216C21.1232 12.06 20.4652 12.1842 19.8867 12.4783C19.3083 12.7724 18.8359 13.223 18.5298 13.7724C18.2237 14.3219 18.098 14.9452 18.1687 15.5626C18.2394 16.18 18.5033 16.7634 18.9266 17.2381C17.6108 18.5325 15.9631 19.4826 14.1438 19.9961C13.9302 19.3665 13.5106 18.8172 12.9456 18.4275C12.3806 18.0378 11.6993 17.8279 11 17.8279C10.3007 17.8279 9.61941 18.0378 9.05441 18.4275C8.48941 18.8172 8.06985 19.3665 7.8562 19.9961Z" fill="white"/>
<path d="M11.0014 13.6659C11.507 13.6659 12.0076 13.5718 12.4747 13.3888C12.9418 13.2058 13.3662 12.9377 13.7237 12.5996C14.0812 12.2616 14.3648 11.8602 14.5583 11.4185C14.7518 10.9768 14.8514 10.5034 14.8514 10.0253C14.8514 9.54726 14.7518 9.07385 14.5583 8.63215C14.3648 8.19046 14.0812 7.78913 13.7237 7.45107C13.3662 7.11301 12.9418 6.84484 12.4747 6.66189C12.0076 6.47893 11.507 6.38477 11.0014 6.38477C9.98028 6.38477 9.00102 6.76833 8.27901 7.45107C7.55699 8.13381 7.15137 9.0598 7.15137 10.0253C7.15137 10.9909 7.55699 11.9169 8.27901 12.5996C9.00102 13.2824 9.98028 13.6659 11.0014 13.6659Z" fill="black"/>
</mask>
<g mask="url(#mask0_402_6930)">
<path d="M-2.19922 -2.45605H24.2008V22.5079H-2.19922V-2.45605Z" fill="white"/>
</g>
</svg>
