<svg width="22" height="22" viewBox="0 0 22 22" fill="none" xmlns="http://www.w3.org/2000/svg">
<path d="M10.9999 0C4.93474 0 0 4.93482 0 11.0001C0 13.712 0.988274 16.1957 2.62107 18.1153C2.64198 18.1475 2.66596 18.178 2.69397 18.206C2.7003 18.2124 2.70739 18.2164 2.71372 18.2223C4.73191 20.5348 7.69708 22 11 22C14.3029 22 17.268 20.5348 19.2863 18.2223C19.2926 18.2166 19.3001 18.2122 19.306 18.206C19.334 18.178 19.3582 18.1472 19.3789 18.1153C21.0117 16.1955 22 13.7117 22 11.0001C22 4.93482 17.0653 0 11.0001 0H10.9999ZM10.9999 20.9002C8.18855 20.9002 5.64924 19.7205 3.84555 17.8323L4.59904 17.0788C5.327 16.351 6.29455 15.9501 7.32334 15.9501H14.6766C15.7053 15.9501 16.6729 16.351 17.4007 17.0786L18.1542 17.8321C16.3506 19.7202 13.8113 20.9002 10.9998 20.9002H10.9999ZM18.8717 16.9942L18.1785 16.301C17.243 15.3654 15.9994 14.85 14.6766 14.85H7.32334C6.0005 14.85 4.75712 15.3654 3.82159 16.301L3.12835 16.9942C1.85712 15.3292 1.09999 13.2517 1.09999 11.0002C1.09999 5.54135 5.54091 1.10006 10.9999 1.10006C16.4586 1.10006 20.8998 5.54106 20.8998 11.0002C20.8998 13.2518 20.1427 15.3293 18.8717 16.9942H18.8717ZM10.9999 4.9501C8.57394 4.9501 6.59985 6.92398 6.59985 9.35024C6.59985 11.7763 8.5737 13.7504 10.9999 13.7504C13.4259 13.7504 15.4 11.7765 15.4 9.35024C15.4 6.92398 13.4259 4.9501 10.9999 4.9501ZM10.9999 12.6502C9.18026 12.6502 7.69999 11.1698 7.69999 9.35019C7.69999 7.5305 9.18031 6.05021 10.9999 6.05021C12.8195 6.05021 14.2998 7.53055 14.2998 9.35019C14.2998 11.1699 12.8195 12.6502 10.9999 12.6502Z" fill="white"/>
</svg>
